<?xml version="1.0" standalone="no"?>
<!DOCTYPE svg PUBLIC "-//W3C//DTD SVG 20010904//EN"
 "http://www.w3.org/TR/2001/REC-SVG-20010904/DTD/svg10.dtd">
<svg version="1.0" xmlns="http://www.w3.org/2000/svg"
 width="514.000000pt" height="514.000000pt" viewBox="0 0 514.000000 514.000000"
 preserveAspectRatio="xMidYMid meet">
<metadata>
Created by potrace 1.14, written by Peter Selinger 2001-2017
</metadata>
<g transform="translate(0.000000,514.000000) scale(0.100000,-0.100000)"
fill="#000000" stroke="none">
<path d="M0 2570 l0 -2570 2570 0 2570 0 0 2570 0 2570 -2570 0 -2570 0 0
-2570z m2830 1850 c36 -11 101 -35 145 -54 80 -35 80 -35 50 -46 -112 -40
-148 -63 -203 -125 -73 -83 -96 -217 -58 -335 45 -135 82 -189 335 -492 440
-526 596 -787 693 -1153 29 -112 32 -132 32 -290 0 -235 -28 -370 -120 -560
-66 -138 -118 -210 -238 -331 -122 -122 -195 -175 -319 -235 -84 -40 -219 -90
-226 -84 -2 2 44 50 101 107 58 57 127 137 154 178 162 249 176 604 30 778
-33 38 -42 40 -50 8 -9 -35 -117 -130 -188 -165 -91 -45 -166 -57 -242 -42
-33 7 -64 15 -69 18 -4 2 20 34 53 70 111 121 145 232 137 448 -4 114 -8 140
-36 215 -34 94 -89 173 -202 294 -91 98 -104 99 -95 7 13 -148 -29 -305 -117
-437 -48 -73 -87 -119 -231 -280 -246 -273 -308 -418 -285 -663 17 -183 92
-333 247 -493 25 -26 43 -51 39 -55 -13 -12 -159 36 -263 87 -118 58 -258 163
-328 246 -190 227 -266 440 -266 744 0 219 34 308 250 655 124 199 123 197
128 300 3 75 0 100 -19 149 -38 102 -142 195 -248 222 l-46 11 80 80 c94 94
169 135 256 141 77 6 177 -25 252 -77 31 -22 57 -39 57 -36 0 2 -14 57 -32
122 -30 112 -32 127 -32 308 -1 213 3 236 75 381 85 170 229 300 404 363 147
53 263 59 395 21z"/>
</g>
</svg>
